<svg xmlns="http://www.w3.org/2000/svg" xmlns:xlink="http://www.w3.org/1999/xlink" viewBox="0 0 966.27 417.64"><defs><style>.cls-1{fill:none;}.cls-2{opacity:0.5;}.cls-3{clip-path:url(#clip-path);}.cls-4{fill:#fff;}.cls-5{clip-path:url(#clip-path-2);}</style><clipPath id="clip-path" transform="translate(0 0)"><rect class="cls-1" x="355.58" width="217.39" height="192.01"/></clipPath><clipPath id="clip-path-2" transform="translate(0 0)"><rect class="cls-1" x="257.94" y="142.18" width="215.62" height="191.1"/></clipPath></defs><title>Risorsa 1bianco</title><g id="Livello_2" data-name="Livello 2"><g id="Livello_1-2" data-name="Livello 1"><g class="cls-2"><g class="cls-3"><polygon class="cls-4" points="548.09 192.01 355.58 0 405.34 0 572.97 167.13 548.09 192.01"/></g></g><polygon class="cls-4" points="448.69 192.02 340.09 83.53 389.76 83.53 473.58 167.13 448.69 192.02"/><g class="cls-2"><g class="cls-5"><polygon class="cls-4" points="473.56 167.05 307.38 333.28 257.94 332.95 448.67 142.18 473.56 167.05"/></g></g><polygon class="cls-4" points="572.97 167.05 322.24 417.64 272.49 417.64 548.09 142.18 572.97 167.05"/><polyline class="cls-4" points="173.75 283.49 222.29 283.49 222.29 294.03 186.34 294.03 186.34 322.51 232.5 322.51 232.5 332.95 173.75 332.95"/><polyline class="cls-4" points="173.75 247.89 230.34 247.89 230.34 258.31 173.75 258.31"/><polygon class="cls-4" points="598.13 258.32 571.82 258.32 571.82 332.95 559.22 332.95 559.22 258.32 532.91 258.32 532.91 247.88 598.13 247.88 598.13 258.32"/><path class="cls-4" d="M788.21,290.4c0,24.73-19.4,43.66-43.21,43.66s-43.22-18.93-43.22-43.66A43,43,0,0,1,745,246.85c23.81,0,43.21,18.83,43.21,43.55m-73.83,0c0,17.36,12.69,33.24,30.62,33.24s30.62-15.88,30.62-33.24-12.7-33.12-30.62-33.12-30.62,15.88-30.62,33.12" transform="translate(0 0)"/><path class="cls-4" d="M936.32,310.49H915.91v22.45H903.2V247.89h33.12c16.56.11,29.94,14,29.94,31.3s-13.38,31.19-29.94,31.31m17.35-31.31c0-11.45-7.83-20.87-17.58-20.87H915.91V300H936.1c9.75,0,17.58-9.41,17.58-20.86" transform="translate(0 0)"/><path class="cls-4" d="M55.35,247.89v58.18c0,13.71-6.7,28-27.57,28S0,319.78,0,306.06H12.58c0,5.11.46,17.58,15.2,17.58s14.85-12.47,14.85-17.58V247.89Z" transform="translate(0 0)"/></g></g></svg>